<svg xmlns="http://www.w3.org/2000/svg" width="327" height="321" viewBox="0 0 327 321" fill="none">
  <path d="M-6 366.225C3.51365 347.468 15.5938 329.972 27.6232 312.328C59.0545 266.225 92.045 220.917 126.438 176.416C163.852 128.006 203.453 81.2149 245.987 36.0734C246.71 35.3061 272.323 8.30541 268.216 19.88C260.973 40.2889 244.535 60.416 232.818 78.7723C212.724 110.253 192.309 141.605 173.137 173.516C149.813 212.336 123.746 248.858 101.95 288.34C98.8498 293.956 63.0648 352.921 78.6662 349.417C91.1214 318.976 146.424 253.498 169.027 228.38C207.502 185.624 238.09 139.244 280.357 99.2356C282.958 96.7744 286.041 93.1602 289.417 91.3403C290.634 90.6842 289.634 93.8849 289.137 95.0463C285.818 102.804 279.285 115.483 275.968 121.955C241.893 188.432 203.265 253.085 169.027 319.498C160.072 336.868 131.96 388.442 142.409 371.703C176.77 316.658 217.721 263.925 259.25 212.75C268.354 201.531 277.343 189.387 287.829 178.994C297.635 169.276 290.133 186.285 289.137 188.823C275.291 224.1 257.754 257.792 247.388 294.04C245.564 300.417 233.071 326.008 250.47 313.214C276.056 294.4 296.819 270.395 316.035 246.829C367.009 184.318 411.348 117.889 458 52.9918" stroke="#9E58F7" stroke-width="33" stroke-linecap="round"/>
</svg>