<svg width="121" height="110" viewBox="0 0 121 110" fill="none" xmlns="http://www.w3.org/2000/svg">
<path d="M15 55.9634C16.1234 48.6615 24.0855 40.4809 28.2315 34.9637C32.416 29.3953 36.8264 24.0022 41.2923 18.6591C43.4123 16.1226 45.9465 11.6099 43.2983 19.214C36.774 37.9481 29.4545 56.4037 23.0243 75.1704C21.6531 79.1721 20.1076 83.1462 19.2682 87.2922C19.1344 87.9533 19.6249 89.4253 20.2072 89.0848C22.172 87.9362 23.291 85.7368 24.8169 84.0483C41.0968 66.0337 57.7114 48.2497 74.7551 30.9516C75.9345 29.7547 77.1144 28.5534 78.3831 27.4517C78.762 27.1227 82.5597 22.9276 82.0111 27.2383C80.4661 39.3774 73.6144 52.2468 69.2918 63.4755C65.9089 72.2632 62.354 81.0127 59.2188 89.8958C58.6995 91.367 57.0203 95.4901 58.1944 94.4628C74.5619 80.1412 87.8916 62.6477 105.657 49.8172" stroke="#9E58F7" stroke-opacity="0.6" stroke-width="28.8267" stroke-linecap="round"/>
</svg>
