<svg width="38" height="38" viewBox="0 0 38 38" fill="none" xmlns="http://www.w3.org/2000/svg">
<path d="M19 0C8.51637 0 0 8.51637 0 19C0 29.4836 8.51637 38 19 38C29.4836 38 38 29.4836 38 19C38 8.51637 29.4836 0 19 0ZM19 1.65217C28.5907 1.65217 36.3478 9.40928 36.3478 19C36.3478 28.5907 28.5907 36.3478 19 36.3478C9.40928 36.3478 1.65217 28.5907 1.65217 19C1.65217 9.40928 9.40928 1.65217 19 1.65217ZM18.858 12.3913C15.8891 12.3913 15.0422 14.5123 15.0422 15.7134C15.0422 17.3391 16.3149 18.1859 16.8799 18.3982C16.1728 18.6807 14.6179 19.4585 14.6179 21.6493C14.6179 23.4865 15.7493 25.6071 19.071 25.6071C20.3432 25.6071 23.3821 24.971 23.3821 21.6493C23.3821 19.3875 21.8264 18.6105 21.0491 18.3982C21.5439 18.1867 22.8158 17.3391 22.8158 15.7134C22.8158 15.0773 22.6043 12.3913 18.858 12.3913ZM11.1522 12.5978C10.7986 14.5788 9.41656 14.9631 7.43478 15.0341V16.3071L10.7391 16.3152V25.4022H12.3913V12.5978H11.1522ZM18.929 13.8047C20.8373 13.8047 21.1201 15.1483 21.1201 15.7844C21.1201 16.4915 20.767 17.9045 19 17.9045C16.8092 17.9045 16.6677 16.138 16.6686 15.7844C16.6686 15.501 16.8084 13.8047 18.929 13.8047ZM28.087 15.6957V18.1739H25.6087V19.8261H28.087V22.3043H29.7391V19.8261H32.2174V18.1739H29.7391V15.6957H28.087ZM19 19.2469C21.1206 19.2469 21.6864 21.1568 21.6864 21.7219C21.6864 22.923 20.767 24.2647 19 24.2647C17.6568 24.2647 16.2426 23.5599 16.2426 21.7219C16.2426 20.6612 16.9505 19.2469 19 19.2469Z" fill="#1A1A1A"/>
</svg>
