<svg width="42" height="43" viewBox="0 0 42 43" fill="none" xmlns="http://www.w3.org/2000/svg">
<path d="M21.0003 42.8906L42 21.8909L21.0003 0.890625L0 21.8909L21.0003 42.8906Z" fill="#FF0000"/>
<path d="M20.9993 39.5455L3.33594 21.8821L20.9993 4.21875L38.6627 21.8821L20.9993 39.5455Z" fill="white"/>
<path d="M20.6537 21.6869C21.1339 21.6869 20.9716 21.4927 21.3813 21.4927C21.7158 21.4927 21.6024 21.6814 22.0557 21.6814C22.4765 21.6814 22.5794 21.3635 22.5794 21.2343C22.5794 21.0346 22.3528 20.9059 22.2499 20.6352C22.1476 20.3657 21.9479 19.3686 21.3391 19.3686C21.1149 19.3686 20.9832 19.4598 20.8154 19.6595C20.541 19.9835 20.5189 20.5268 20.3493 20.7381C20.1814 20.9427 20.1171 21.1626 20.1171 21.2777C20.1171 21.4021 20.1765 21.6863 20.6561 21.6863L20.6537 21.6869ZM15.9576 25.0992L15.497 25.3172C15.0352 25.5395 14.4594 26.0038 14.34 26.9563C14.3204 27.1131 13.9676 27.5277 13.6056 27.5277C13.3833 27.5277 13.1205 27.3807 13.0844 27.1621C13.0213 26.786 12.7371 25.4379 12.7248 25.3809C12.6899 25.2149 12.5264 25.1077 12.3598 25.1433C12.1925 25.1794 12.0866 25.3417 12.1221 25.5089C12.1221 25.512 12.1668 25.7215 12.1668 25.7215C11.6309 25.466 11.6088 25.4201 11.6088 25.2357C11.6088 25.0085 12.1337 24.7182 12.5478 24.7182C12.8963 24.7182 13.1628 24.818 13.4212 24.9142C13.6546 25.0018 13.8953 25.0918 14.1679 25.0918C14.5599 25.0918 14.672 25.052 14.852 24.9546L15.0039 24.8805C15.2416 24.7806 17.0828 23.9017 17.8943 23.514C18.0077 23.6757 18.143 23.8386 18.2992 23.9948L15.9576 25.0992ZM18.1069 20.9617C18.8235 21.407 18.8125 21.3868 18.8162 21.6673C18.807 21.7432 18.8045 21.8682 18.8045 22.0997C18.8045 22.8641 20.2917 23.5054 21.2264 23.5054C22.2627 23.5054 23.6353 22.8053 23.6353 22.0771V21.6838C23.6353 21.3733 23.6684 21.3451 24.2674 20.9929V22.4507C24.2674 22.8586 23.7082 23.729 22.6988 24.2367L22.6658 24.2533C22.177 24.4989 21.5694 24.7782 21.3182 24.7782C21.0867 24.7782 20.3027 24.5497 19.6792 24.2355C18.6692 23.7278 18.1106 22.8568 18.1106 22.4488L18.1069 20.9617ZM11.8067 18.576C11.8054 18.576 11.8042 18.5772 11.8024 18.5778C11.8036 18.5778 11.8048 18.5766 11.8067 18.576ZM29.9423 17.9984C30.0783 17.9984 30.1377 18.0425 30.1701 18.0762C30.3686 18.2814 30.349 18.8804 30.3355 19.3177L30.3282 19.665C30.3245 19.8353 30.4592 19.9688 30.6289 19.9731C30.7992 19.9762 30.9401 19.8353 30.9443 19.665L30.9468 19.5407C30.9646 19.5878 30.9725 19.6283 30.9725 19.6546V20.2469C30.9725 20.4147 30.9235 20.6156 30.6914 20.6156C30.5009 20.6156 30.2565 20.4968 30.0207 20.3823C29.7487 20.25 29.4896 20.1244 29.2293 20.1244L29.1846 20.1226C29.0315 20.1152 28.7118 20.1005 28.2616 20.3112L28.2524 20.3155L24.8836 22.0244V21.1681C25.3822 20.9409 27.2932 20.0644 27.7655 19.8206C28.2983 19.5462 28.7044 18.96 28.9439 18.6097L29.0364 18.4774C29.1969 18.2569 29.5307 17.9996 29.9441 17.9996L29.9423 17.9984ZM14.4025 20.3143L14.3976 20.3124C13.9474 20.1011 13.6276 20.1164 13.4745 20.1238L13.4298 20.1256C13.1676 20.1256 12.9104 20.2512 12.6384 20.3835C12.4051 20.4986 12.1589 20.6168 11.9678 20.6168C11.735 20.6168 11.6866 20.4166 11.6866 20.2481V19.6552C11.6866 19.6295 11.6946 19.5891 11.7123 19.5419L11.7148 19.6656C11.7185 19.8359 11.86 19.9768 12.0302 19.9737C12.1999 19.9701 12.3353 19.8359 12.331 19.6656L12.3236 19.3183C12.3095 18.881 12.2905 18.282 12.4884 18.0768C12.5215 18.0437 12.5803 17.999 12.7162 17.999C13.1297 17.999 13.4641 18.2563 13.6246 18.4768L13.7171 18.6091C13.9584 18.9588 14.3645 19.548 14.8955 19.82C15.3084 20.0331 16.7796 20.7087 17.4956 21.0376V21.8804L14.4025 20.3143ZM21.2331 10.701C22.9463 10.701 23.7781 11.4152 24.8328 12.3738L25.3914 12.8748L25.5996 13.0555C26.2691 13.6361 26.9024 14.1843 26.9024 14.5096C26.9024 14.912 26.7616 15.3132 26.5711 15.6874C26.5931 15.5508 26.5943 15.4602 26.5943 15.2856C26.5943 14.6223 26.4112 14.3368 25.7338 13.6288L25.2885 14.0545C25.9237 14.7178 25.9782 14.8587 25.9782 15.285C25.9782 15.5508 25.9782 15.5508 25.8434 16.1486L25.6652 16.9498L25.6854 17.0227C25.6878 17.0306 25.8949 17.792 25.8949 18.5221C25.8949 19.2865 25.4281 19.5707 24.8389 19.9339L24.6533 20.0478L24.0182 20.4306C23.3475 20.8245 23.013 20.9984 23.013 21.6863V22.0795C23.013 22.3074 22.1506 22.8917 21.2319 22.8917C20.3885 22.8917 19.4599 22.3086 19.4262 22.096C19.4262 21.8143 19.4385 21.6924 19.4385 21.6924C19.4385 21.018 19.112 20.8288 18.4603 20.4509C18.279 20.3455 18.0536 20.2144 17.7884 20.0478L17.6028 19.9339C17.0111 19.5719 16.5891 19.3667 16.5891 18.5221C16.5891 17.634 16.8004 17.3161 16.8004 17.0423C16.8004 16.7679 16.5046 15.7003 16.5046 15.5331C16.5046 15.5116 16.507 15.3309 16.507 15.3309C16.507 14.9316 16.5579 14.5978 17.1759 14.049C17.2261 14.0049 17.302 13.8689 17.2408 13.7936C17.1795 13.7182 17.1551 13.687 17.084 13.6031C17.0485 13.5608 16.9835 13.5443 16.9211 13.5437C16.8586 13.5437 16.798 13.5602 16.771 13.5847C16.0397 14.2339 15.8902 14.7258 15.8902 15.3309C15.8902 15.3309 15.8878 15.5116 15.8878 15.5386C15.8878 15.7027 15.8804 15.62 15.965 15.9661C15.7016 15.519 15.4799 15.0161 15.4799 14.5102C15.4799 14.196 16.0826 13.6502 16.7208 13.0726L16.9995 12.8197C17.22 12.6182 17.4135 12.4301 17.5967 12.2482C18.0193 11.8335 18.3525 11.5065 18.7402 11.3092C19.6149 10.8658 20.4087 10.7022 21.238 10.7022L21.2331 10.701ZM17.604 22.9817C16.5352 23.4926 14.9727 24.2374 14.7706 24.3225L14.5654 24.4217C14.476 24.4701 14.4484 24.4842 14.174 24.4842C14.0135 24.4842 13.842 24.4205 13.643 24.3464C13.3624 24.241 13.0133 24.113 12.5539 24.113C11.9206 24.113 11 24.5546 11 25.2462C11 25.8623 11.3951 26.0473 12.0486 26.3548L12.3297 26.4883C12.3959 26.8111 12.459 27.1272 12.4835 27.2748C12.5747 27.8254 13.1309 28.1555 13.6123 28.1555C14.3008 28.1555 14.9016 27.4818 14.9598 27.0469C15.0297 26.4944 15.2949 26.1141 15.772 25.885L16.2265 25.67L18.8223 24.4474C19.0005 24.5755 19.1935 24.6943 19.4011 24.7978C19.9089 25.0532 20.8711 25.4311 21.3189 25.4311C21.717 25.4311 22.3105 25.131 22.9585 24.8058C23.236 24.6661 23.4736 24.5142 23.6868 24.347L26.8822 25.8838C27.3594 26.1135 27.6252 26.4932 27.6944 27.0457C27.7489 27.483 28.3516 28.1543 29.0419 28.1543C29.5252 28.1543 30.0789 27.8254 30.1714 27.2735C30.1959 27.1259 30.259 26.8099 30.3245 26.4871L30.6062 26.3536C31.2604 26.0461 31.6555 25.8605 31.6555 25.2449C31.6555 24.5534 30.7355 24.1118 30.1009 24.1118C29.6416 24.1118 29.2924 24.2423 29.0119 24.3452C28.8141 24.4193 28.6426 24.483 28.4815 24.483C28.2065 24.483 28.1789 24.4689 28.0901 24.4205L27.8843 24.3213C27.6681 24.23 25.8698 23.3725 24.8126 22.8666C24.8273 22.8225 24.8395 22.779 24.8493 22.7355C25.5733 22.3692 28.5127 20.8802 28.5243 20.8741C28.8361 20.7289 29.0284 20.7375 29.1565 20.7436L29.23 20.7455C29.35 20.7455 29.554 20.8447 29.7512 20.9415C30.036 21.0799 30.3588 21.2373 30.6902 21.2373C31.2212 21.2373 31.5875 20.8325 31.5875 20.253V19.6601C31.5875 19.3379 31.3651 18.8896 30.9517 18.6385C30.929 18.2563 30.8482 17.8973 30.6124 17.6536C30.4415 17.4784 30.2161 17.3883 29.9423 17.3883C29.2949 17.3883 28.7938 17.7663 28.5366 18.1197L28.4349 18.2648C28.2395 18.5478 27.8769 19.0746 27.4819 19.2773C27.1977 19.4237 26.3616 19.8132 25.6474 20.1422C26.1111 19.8034 26.508 19.349 26.508 18.5264C26.508 18.0119 26.4198 17.4992 26.3524 17.1844L26.4627 17.0202C26.9067 16.3789 27.5131 15.5031 27.5131 14.5157C27.5131 13.9099 26.8773 13.3593 25.9972 12.5967L25.7901 12.4166L25.2419 11.9254C24.1805 10.9601 23.1827 10.0469 21.23 10.0469C20.3131 10.0469 19.4042 10.2802 18.4536 10.7629C17.9807 11.003 17.5991 11.3778 17.1587 11.8121C16.9774 11.9897 16.79 12.1741 16.5775 12.3676L16.3006 12.62C15.4627 13.3783 14.8576 13.9265 14.8576 14.5145C14.8576 15.5 15.4651 16.3777 15.9074 17.019L15.9864 17.1354C15.9233 17.5862 15.8578 18.1821 15.8578 18.5999C15.8578 19.1744 16.123 19.5793 16.4684 19.8947C15.9153 19.6375 15.3849 19.3882 15.1687 19.2773C14.7742 19.0746 14.411 18.5478 14.2156 18.2648L14.1146 18.1197C13.8573 17.7638 13.3502 17.3883 12.7083 17.3883C12.4351 17.3883 12.2091 17.4772 12.0388 17.6536C11.8024 17.8973 11.7215 18.2563 11.6995 18.6391C11.7007 18.6391 11.7013 18.6385 11.7032 18.6372C11.7019 18.6372 11.7013 18.6385 11.6995 18.6391C11.2854 18.8902 11.0631 19.3386 11.0631 19.6607V20.2536C11.0631 20.8331 11.4318 21.2379 11.9604 21.2379C12.2936 21.2379 12.6164 21.0805 12.9 20.9415C13.0972 20.8453 13.3006 20.7461 13.4212 20.7461L13.4947 20.7443C13.6227 20.7381 13.8151 20.7289 14.1268 20.8747C14.1379 20.8802 16.4715 22.0636 17.4944 22.5781L17.604 22.9817ZM24.5406 23.4178C25.169 23.7186 27.3869 24.7782 27.6442 24.8878L27.7961 24.962C27.9755 25.0593 28.0876 25.0992 28.4802 25.0992C28.7522 25.0992 28.9935 25.0085 29.2269 24.9221C29.4848 24.8254 29.7518 24.7261 30.1003 24.7261C30.5144 24.7261 31.0393 25.0159 31.0393 25.2431C31.0393 25.4275 31.0172 25.474 30.4813 25.7294C30.5082 25.602 30.5254 25.5199 30.5266 25.5169C30.5615 25.3509 30.4556 25.1874 30.2884 25.1518C30.1224 25.1169 29.9588 25.2229 29.9239 25.3889C29.9117 25.4464 29.6275 26.7952 29.5644 27.17C29.5276 27.3887 29.2655 27.5351 29.0431 27.5351C28.6811 27.5351 28.3283 27.1204 28.3087 26.9642C28.1893 26.0099 27.6142 25.5457 27.1523 25.3252L24.1774 23.8937C24.3201 23.7388 24.4426 23.5789 24.5443 23.4215L24.5406 23.4178ZM23.7395 19.1573C24.766 19.1573 25.1978 17.8679 25.1978 17.536C25.1978 17.2046 24.9351 17.0637 24.7807 17.0637H22.8274C22.6192 17.0637 22.1176 17.2334 22.1176 17.558C22.1176 17.6793 22.2088 17.9463 22.4048 18.2054C22.7429 18.6532 23.0363 19.1548 23.7389 19.1548L23.7395 19.1573ZM18.6349 19.1573C19.3349 19.1573 19.6326 18.6556 19.9695 18.2079C20.1655 17.9482 20.2562 17.683 20.2562 17.5605C20.2562 17.2358 19.7545 17.0662 19.5463 17.0662H17.5936C17.4386 17.0662 17.1771 17.2052 17.1771 17.5384C17.1771 17.8704 17.6089 19.1597 18.6349 19.1597V19.1573ZM18.1044 20.4288H17.6469C17.8662 20.5299 18.0328 20.604 18.1044 20.6383V20.4288ZM17.4974 22.5701C17.5121 22.6945 17.5477 22.8298 17.6034 22.9713L17.4974 22.5701Z" fill="#1A1A1A"/>
</svg>
